:SAMPLES-PER-SECOND 30
:FULLY-SPECIFIED
:DEGREES
509
root  33.7166 34.0314 14.0163 -170.762 36.5991 -175.92
LeftUpLeg  -9.01977 12.0647 11.3715
LeftLeg  15.5094 23.6142 4.79341
LeftFoot  5.15682 -0.107424 2.20599
LeftToes  -23.5352 2.48695e-006 -1.03773e-007
Spine  0.93616 0.169722 1.62053
Spine1  1.40513 0.278052 3.21349
RightShoulder  0.189502 8.4636 9.72015
RightArm  -26.2893 -15.1498 70.3474
RightForeArm  33.053 13.2541 2.3743
RightHand  0.219865 -5.1065 -4.59852
LeftShoulder1  0.0987614 -2.11569 -11.0326
LeftArm  -11.6172 12.8255 -70.1273
LeftForeArm  32.2741 -14.0659 -2.52502
LeftHand  0.107604 3.53716 3.39399
HEad  -14.8771 -25.0049 5.54259
RightUpLeg  -12.2792 -6.63925 3.74718
RightLeg  17.3802 25.4369 5.98905
RightFoot  -1.98633 -0.0168033 -0.944931
RightToes  -22.4796 -0.101678 -0.202326
510
root  33.7139 34.031 14.0249 -170.772 36.618 -175.924
LeftUpLeg  -9.01428 12.1104 11.372
LeftLeg  15.478 23.5763 4.77322
LeftFoot  5.17376 -0.107633 2.20925
LeftToes  -23.6786 2.48695e-006 -1.03773e-007
Spine  0.939099 0.165816 1.62482
Spine1  1.41121 0.270707 3.22218
RightShoulder  0.18954 8.41913 9.73948
RightArm  -26.2975 -15.1525 70.3278
RightForeArm  32.9938 13.2633 2.37605
RightHand  0.219988 -5.11282 -4.61103
LeftShoulder1  0.0987614 -2.11837 -11.0493
LeftArm  -11.6364 12.8649 -70.09
LeftForeArm  32.4196 -14.0127 -2.51496
LeftHand  0.108527 3.52098 3.4593
HEad  -14.8813 -25.0276 5.54566
RightUpLeg  -12.2952 -6.60812 3.74835
RightLeg  17.4018 25.4136 5.99366
RightFoot  -2.00125 -0.0167599 -0.945605
RightToes  -22.4943 -0.101678 -0.202326
511
root  33.7088 34.0306 14.0448 -170.784 36.6606 -175.932
LeftUpLeg  -9.00724 12.2068 11.3754
LeftLeg  15.4224 23.5266 4.74075
LeftFoot  5.23989 -0.109138 2.23265
LeftToes  -23.7326 2.48695e-006 -1.03773e-007
Spine  0.967674 0.149999 1.62545
Spine1  1.46827 0.238144 3.23455
RightShoulder  0.189548 8.42144 9.75487
RightArm  -26.3088 -15.1543 70.304
RightForeArm  32.9248 13.277 2.37865
RightHand  0.217835 -5.16161 -4.51686
LeftShoulder1  0.0987614 -2.14263 -11.0488
LeftArm  -11.7673 12.8587 -70.0683
LeftForeArm  32.4392 -13.9477 -2.50281
LeftHand  0.108227 3.53468 3.44421
HEad  -15.1263 -25.0132 5.61304
RightUpLeg  -12.3468 -6.55488 3.75408
RightLeg  17.4603 25.4023 6.01745
RightFoot  -1.99864 -0.0167343 -0.946003
RightToes  -22.4512 -0.101678 -0.202326
512
root  33.7081 34.0302 14.0539 -170.787 36.6708 -175.936
LeftUpLeg  -9.00973 12.2379 11.375
LeftLeg  15.401 23.5225 4.73112
LeftFoot  5.26194 -0.10971 2.24155
LeftToes  -23.6715 2.48695e-006 -1.03773e-007
Spine  0.982599 0.139523 1.62459
Spine1  1.49724 0.216125 3.23798
RightShoulder  0.189555 8.42457 9.76811
RightArm  -26.3199 -15.1498 70.2973
RightForeArm  32.9036 13.2707 2.3775
RightHand  0.218392 -5.19229 -4.57594
LeftShoulder1  0.0987614 -2.16427 -11.0504
LeftArm  -11.8274 12.8476 -70.078
LeftForeArm  32.5111 -13.9338 -2.50017
LeftHand  0.107673 3.58269 3.43311
HEad  -15.2536 -24.9765 5.65711
RightUpLeg  -12.3675 -6.5522 3.75939
RightLeg  17.478 25.407 6.02645
RightFoot  -1.99483 -0.0167584 -0.945628
RightToes  -22.4218 -0.101678 -0.202326
513
root  33.7094 34.0296 14.0657 -170.786 36.6841 -175.942
LeftUpLeg  -9.02916 12.2453 11.3765
LeftLeg  15.4052 23.5369 4.73558
LeftFoot  5.26422 -0.10984 2.24357
LeftToes  -23.5856 2.48695e-006 -1.03773e-007
Spine  1.0032 0.128477 1.62287
Spine1  1.53696 0.191047 3.23672
RightShoulder  0.189558 8.42645 9.77438
RightArm  -26.3417 -15.1564 70.3048
RightForeArm  32.8338 13.2468 2.37311
RightHand  0.219231 -5.19087 -4.62614
LeftShoulder1  0.0987614 -2.18955 -11.0668
LeftArm  -11.9184 12.8287 -70.1153
LeftForeArm  32.6133 -13.9501 -2.50313
LeftHand  0.108052 3.53103 3.42698
HEad  -15.4154 -24.9188 5.75282
RightUpLeg  -12.3788 -6.64995 3.77097
RightLeg  17.4727 25.5188 6.04869
RightFoot  -1.99198 -0.0168641 -0.943986
RightToes  -22.2678 -0.101678 -0.202326
514
root  33.7114 34.0291 14.0751 -170.782 36.698 -175.944
LeftUpLeg  -9.04924 12.1979 11.3819
LeftLeg  15.4327 23.5995 4.75883
LeftFoot  5.30353 -0.111362 2.26725
LeftToes  -23.6873 2.48695e-006 -1.03773e-007
Spine  1.01428 0.127522 1.62093
Spine1  1.55627 0.184717 3.22958
RightShoulder  0.189545 8.44041 9.76514
RightArm  -26.3641 -15.1723 70.3333
RightForeArm  32.8095 13.226 2.36927
RightHand  0.218188 -5.23633 -4.59875
LeftShoulder1  0.0987614 -2.21382 -11.1035
LeftArm  -11.9872 12.7717 -70.1566
LeftForeArm  32.6372 -13.9629 -2.50551
LeftHand  0.106182 3.58167 3.30646
HEad  -15.4667 -24.9189 5.78094
RightUpLeg  -12.3888 -6.7305 3.78438
RightLeg  17.4638 25.6093 6.06455
RightFoot  -1.97354 -0.0171719 -0.939203
RightToes  -22.2795 -0.101678 -0.202326
515
root  33.7128 34.0291 14.0806 -170.769 36.7354 -175.94
LeftUpLeg  -9.06441 12.1222 11.3865
LeftLeg  15.4717 23.7028 4.79459
LeftFoot  5.30041 -0.111964 2.2766
LeftToes  -23.5961 2.48695e-006 -1.03773e-007
Spine  1.02391 0.136391 1.61942
Spine1  1.57261 0.198209 3.21964
RightShoulder  0.189535 8.44629 9.75555
RightArm  -26.3953 -15.186 70.3568
RightForeArm  32.8325 13.2194 2.36801
RightHand  0.218452 -5.21464 -4.5975
LeftShoulder1  0.0987614 -2.21299 -11.1513
LeftArm  -12.0491 12.7191 -70.2168
LeftForeArm  32.6129 -14.0047 -2.51334
LeftHand  0.108002 3.50603 3.40478
HEad  -15.4204 -24.8839 5.74339
RightUpLeg  -12.3985 -6.80571 3.79652
RightLeg  17.4559 25.7272 6.08687
RightFoot  -1.94165 -0.0178229 -0.929088
RightToes  -22.2653 -0.101678 -0.202326
516
root  33.713 34.0291 14.0824 -170.738 36.8119 -175.926
LeftUpLeg  -9.05048 12.0077 11.3897
LeftLeg  15.434 23.9062 4.81737
LeftFoot  5.38173 -0.1157 2.33471
LeftToes  -23.6826 2.48695e-006 -1.03773e-007
Spine  1.02575 0.163144 1.61942
Spine1  1.57432 0.24839 3.21277
RightShoulder  0.189535 8.4391 9.74926
RightArm  -26.4792 -15.1982 70.37
RightForeArm  32.91 13.2295 2.36511
RightHand  0.218197 -5.21218 -4.57989
LeftShoulder1  0.0987614 -2.18119 -11.1667
LeftArm  -12.1048 12.6433 -70.3557
LeftForeArm  32.6338 -14.0259 -2.51728
LeftHand  0.108257 3.48596 3.41167
HEad  -15.2006 -24.8127 5.59789
RightUpLeg  -12.4142 -6.71915 3.80358
RightLeg  17.4241 25.7279 6.07257
RightFoot  -1.91166 -0.0187248 -0.915073
RightToes  -22.3645 -0.101678 -0.202326
517
root  33.7155 34.0291 14.076 -170.722 36.8578 -175.918
LeftUpLeg  -9.04356 12.2341 11.3924
LeftLeg  15.4349 23.7485 4.78795
LeftFoot  5.31537 -0.112566 2.28597
LeftToes  -23.5167 2.48695e-006 -1.03773e-007
Spine  1.02765 0.180727 1.61942
Spine1  1.57423 0.282183 3.21277
RightShoulder  0.189527 8.44144 9.73864
RightArm  -26.5325 -15.1952 70.3746
RightForeArm  32.9451 13.2189 2.36838
RightHand  0.218147 -5.22265 -4.58528
LeftShoulder1  0.0987614 -2.15607 -11.1599
LeftArm  -12.1003 12.6026 -70.5195
LeftForeArm  32.551 -14.0777 -2.52702
LeftHand  0.108739 3.46229 3.43521
HEad  -15.0731 -24.719 5.48258
RightUpLeg  -12.4033 -6.75915 3.80017
RightLeg  17.4146 25.8076 6.08567
RightFoot  -1.921 -0.0181687 -0.923714
RightToes  -22.2397 -0.101678 -0.202326
518
root  33.7176 34.0291 14.072 -170.72 36.8625 -175.916
LeftUpLeg  -9.04761 12.2028 11.393
LeftLeg  15.4705 23.7592 4.80483
LeftFoot  5.3039 -0.112276 2.28146
LeftToes  -23.674 2.48695e-006 -1.03773e-007
Spine  1.02957 0.189171 1.61942
Spine1  1.57312 0.297757 3.21277
RightShoulder  0.189527 8.46035 9.75522
RightArm  -26.5413 -15.1917 70.3432
RightForeArm  32.9149 13.2074 2.37249
RightHand  0.218987 -5.18398 -4.60579
LeftShoulder1  0.0987614 -2.15805 -11.1854
LeftArm  -12.0942 12.582 -70.6395
LeftForeArm  32.4643 -14.1645 -2.54332
LeftHand  0.10714 3.46519 3.3015
HEad  -14.9346 -24.6277 5.38696
RightUpLeg  -12.4034 -6.73176 3.79978
RightLeg  17.4293 25.7814 6.08666
RightFoot  -1.92267 -0.0181378 -0.924194
RightToes  -22.2726 -0.101678 -0.202326
519
root  33.7199 34.0291 14.0668 -170.718 36.8511 -175.917
LeftUpLeg  -9.05036 12.2048 11.3931
LeftLeg  15.4861 23.7521 4.81
LeftFoot  5.29353 -0.111898 2.27559
LeftToes  -23.6868 2.48695e-006 -1.03773e-007
Spine  1.0315 0.189171 1.61942
Spine1  1.57195 0.31112 3.21277
RightShoulder  0.189525 8.47001 9.75996
RightArm  -26.5706 -15.1797 70.3352
RightForeArm  32.9428 13.2177 2.37146
RightHand  0.218772 -5.19344 -4.60021
LeftShoulder1  0.0987614 -2.1751 -11.1757
LeftArm  -12.0236 12.5802 -70.7844
LeftForeArm  32.3353 -14.2497 -2.55936
LeftHand  0.105614 3.50718 3.19983
HEad  -14.776 -24.5608 5.28213
RightUpLeg  -12.4024 -6.71658 3.79863
RightLeg  17.4367 25.7586 6.085
RightFoot  -1.94271 -0.0175265 -0.933692
RightToes  -22.2807 -0.101678 -0.202326
520
root  33.7229 34.0291 14.0637 -170.715 36.8199 -175.92
LeftUpLeg  -9.05993 12.2351 11.395
LeftLeg  15.5019 23.68 4.80285
LeftFoot  5.2441 -0.109941 2.24515
LeftToes  -23.5206 2.48695e-006 -1.03773e-007
Spine  1.03344 0.189171 1.61942
Spine1  1.57171 0.311322 3.21277
RightShoulder  0.189525 8.47001 9.75996
RightArm  -26.6017 -15.1509 70.3567
RightForeArm  32.954 13.2298 2.36986
RightHand  0.219954 -5.17754 -4.65959
LeftShoulder1  0.0987614 -2.17949 -11.1629
LeftArm  -11.9575 12.5719 -70.9086
LeftForeArm  32.2445 -14.3191 -2.57242
LeftHand  0.105442 3.4917 3.17261
HEad  -14.7216 -24.4708 5.25579
RightUpLeg  -12.4008 -6.71205 3.79891
RightLeg  17.4407 25.724 6.07926
RightFoot  -1.94646 -0.0174757 -0.934482
RightToes  -22.2975 -0.101678 -0.202326
521
root  33.7249 34.0291 14.0598 -170.714 36.8094 -175.922
LeftUpLeg  -9.05761 12.2399 11.3954
LeftLeg  15.5078 23.6665 4.80273
LeftFoot  5.26957 -0.110571 2.25494
LeftToes  -23.7755 2.48695e-006 -1.03773e-007
Spine  1.03538 0.189171 1.61942
Spine1  1.57338 0.311868 3.21277
RightShoulder  0.189525 8.47001 9.75996
RightArm  -26.609 -15.144 70.3678
RightForeArm  32.9685 13.2334 2.37052
RightHand  0.219608 -5.18811 -4.64688
LeftShoulder1  0.0987614 -2.1822 -11.1698
LeftArm  -11.9363 12.5767 -70.9578
LeftForeArm  32.2147 -14.3339 -2.57522
LeftHand  0.102801 3.5227 2.95539
HEad  -14.6933 -24.424 5.26139
RightUpLeg  -12.3992 -6.70085 3.7996
RightLeg  17.4422 25.6995 6.07569
RightFoot  -1.95375 -0.0173034 -0.93716
RightToes  -22.3701 -0.101678 -0.202326
522
root  33.729 34.0291 14.0546 -170.707 36.7686 -175.922
LeftUpLeg  -9.05836 12.2564 11.3964
LeftLeg  15.4799 23.6116 4.78071
LeftFoot  5.23456 -0.109154 2.23289
LeftToes  -23.5141 2.48695e-006 -1.03773e-007
Spine  1.03733 0.189171 1.61942
Spine1  1.57948 0.301936 3.21277
RightShoulder  0.189525 8.47001 9.75996
RightArm  -26.6197 -15.1227 70.3968
RightForeArm  32.9493 13.2524 2.37405
RightHand  0.218441 -5.2217 -4.60252
LeftShoulder1  0.0987614 -2.20468 -11.1478
LeftArm  -11.8613 12.581 -71.0294
LeftForeArm  32.1162 -14.3519 -2.57866
LeftHand  0.103917 3.49987 3.04072
HEad  -14.6697 -24.354 5.29464
RightUpLeg  -12.3972 -6.73964 3.7972
RightLeg  17.4419 25.7048 6.07955
RightFoot  -1.97221 -0.0167044 -0.946467
RightToes  -22.2201 -0.101678 -0.202326
